<svg width="21" height="20" viewBox="0 0 21 20" fill="none" xmlns="http://www.w3.org/2000/svg">
<path d="M10.0017 20C4.47936 19.9933 0.00668561 15.5214 0 10C0.00668561 4.47861 4.47936 0.00668449 10.0017 0C11.9204 0 13.7991 0.551471 15.4103 1.59091L13.8492 3.15174C12.6759 2.48997 11.3488 2.14238 10.0017 2.14238C5.66271 2.14572 2.14942 5.66176 2.14274 10C2.14608 14.3382 5.66271 17.8509 10.0017 17.8576C14.3406 17.8543 17.8539 14.3382 17.8606 10C17.8606 9.62567 17.8339 9.25468 17.7804 8.88369L19.5721 7.09893C19.8563 8.0381 20 9.01738 20 10C19.9933 15.5214 15.5206 19.9933 9.99833 20H10.0017Z" fill="#7FBF34"/>
<path d="M5.99805 8.13968L9.87236 11.9956L19.193 2.39929" stroke="#24A05F" stroke-width="3" stroke-linecap="round" stroke-linejoin="round"/>
</svg>
