<svg width="191" height="45" viewBox="0 0 191 45" fill="none" xmlns="http://www.w3.org/2000/svg">
<g clip-path="url(#clip0_155_631)">
<path d="M22.13 0C9.91 0 0 9.91 0 22.13C0 34.35 9.91 44.26 22.13 44.26C34.35 44.26 44.26 34.35 44.26 22.13C44.26 9.91 34.36 0 22.13 0ZM22.13 33.87C14.54 33.87 8.38 27.71 8.38 20.12C8.38 12.53 14.54 6.37 22.13 6.37C29.72 6.37 35.88 12.53 35.88 20.12C35.88 27.71 29.72 33.87 22.13 33.87Z" fill="#7FBF34"/>
<path d="M30.65 24.96C30.65 29.66 26.84 33.48 22.13 33.48C17.42 33.48 13.61 29.67 13.61 24.96C13.61 20.25 17.42 16.44 22.13 16.44C26.84 16.44 30.65 20.25 30.65 24.96Z" fill="#7FBE33"/>
<path d="M113.23 10.21H101.9C101.4 10.21 100.99 10.62 100.99 11.92V33.11C100.99 33.62 101.4 34.03 101.9 34.03H113.23C113.73 34.03 114.14 33.62 114.14 33.12V31.55C114.14 31.05 113.73 30.64 113.23 30.64H105.25C104.75 30.64 104.34 30.24 104.34 29.73V24.78C104.34 24.28 104.74 23.87 105.25 23.87H111.56C112.06 23.87 112.47 23.46 112.47 22.96V21.39C112.47 20.89 112.06 20.48 111.56 20.48H105.25C104.75 20.48 104.34 20.07 104.34 19.57V14.46C104.34 13.96 104.74 13.55 105.25 13.55H113.23C113.73 13.55 114.14 13.14 114.14 12.64V11.07C114.14 10.57 113.73 10.16 113.23 10.16" fill="#4A4A4A"/>
<path d="M138.9 30.65H130.93C130.43 30.65 130.02 30.24 130.02 29.74V11.12C130.02 10.62 129.61 10.21 129.11 10.21H127.56C127.06 10.21 126.65 10.62 126.65 11.12V33.13C126.65 33.63 127.05 34.04 127.56 34.04H138.89C139.39 34.04 139.8 33.63 139.8 33.13V31.56C139.8 31.06 139.39 30.65 138.89 30.65" fill="#4A4A4A"/>
<path d="M89.0001 10.21H87.1301C86.7501 10.21 86.4101 10.44 86.2601 10.79L80.4201 24.91C80.2301 25.37 79.5801 25.35 79.4101 24.89L74.5201 10.83C74.2201 10.01 73.0601 10 72.7601 10.82L67.6501 24.89C67.4701 25.35 66.8201 25.36 66.6401 24.89L61.1601 10.81C61.0201 10.45 60.6701 10.21 60.2801 10.21H58.3901C57.7201 10.21 57.2701 10.88 57.5201 11.5L66.2701 33.41C66.5901 34.21 67.7201 34.2 68.0301 33.39L73.1101 19.34C73.2701 18.91 73.8801 18.91 74.0401 19.34L78.9101 33.37C79.2001 34.18 80.3301 34.2 80.6601 33.41L89.8701 11.5C90.1301 10.88 89.6701 10.19 89.0001 10.19" fill="#4A4A4A"/>
<path d="M190.53 32.65L181.33 10.84C180.99 10.03 179.84 10.03 179.5 10.84L170.3 32.65C170.02 33.3 170.5 34.03 171.21 34.03H172.74C173.14 34.03 173.51 33.78 173.66 33.41L175.88 27.89C176.03 27.51 176.39 27.27 176.8 27.27H184.02C184.42 27.27 184.79 27.52 184.94 27.89L187.16 33.41C187.31 33.79 187.68 34.03 188.08 34.03H189.61C190.32 34.03 190.8 33.31 190.52 32.65M182.59 23.89H178.23C177.88 23.89 177.64 23.53 177.77 23.21L179.95 17.79C180.12 17.37 180.71 17.37 180.87 17.79L183.05 23.21C183.18 23.54 182.94 23.89 182.59 23.89Z" fill="#4A4A4A"/>
<path d="M157.2 20.07L154.91 19.13C154.8 19.09 154.71 19.03 154.61 18.98C154.12 18.77 153.69 18.54 153.37 18.34C153.25 18.27 153.18 18.22 153.08 18.14C153.01 18.09 152.94 18.02 152.89 17.96C152.88 17.95 152.86 17.94 152.85 17.92C152.72 17.8 152.61 17.68 152.53 17.58C152.11 17.11 151.9 16.67 151.9 16.06C151.9 14.56 153.54 13.27 155.54 13.27C157.1 13.27 158.29 14.01 158.85 15.12C159.08 15.57 159.6 15.83 160.13 15.72L161 15.36C161.67 15.22 162.04 14.56 161.76 14C160.4 11.19 158.13 10.23 155.78 10.23C153.82 10.23 151.99 10.8 150.67 11.96C149.35 13.12 148.68 14.56 148.69 16.28C148.72 19.26 150.39 20.7 153.53 22.03C153.53 22.03 155.2 22.8 155.7 23.03C156.95 23.61 157.82 23.93 158.3 24.59C158.78 25.25 158.76 25.36 158.89 25.73C159.02 26.1 159.08 26.51 159.08 26.96C159.08 28.07 158.77 28.89 158.05 29.62C157.34 30.34 156.36 30.76 155.28 30.76C153.91 30.76 152.81 30.28 152.1 29.29C151.81 28.91 151.58 28.43 151.41 27.67C151.3 27.15 150.76 26.78 150.16 26.86L148.99 27.15C148.34 27.23 147.93 27.8 148.07 28.37C148.47 30 149.2 31.3 150.25 32.27C151.59 33.48 153.29 34.07 155.36 34.04C157.01 34.01 158.63 33.47 159.86 32.48C161.66 31.03 162.55 29.12 162.55 26.73C162.55 25.16 162.12 23.92 161.26 22.83C160.4 21.75 159.04 20.83 157.18 20.08" fill="#4A4A4A"/>
</g>
<defs>
<clipPath id="clip0_155_631">
<rect width="190.61" height="44.27" fill="white"/>
</clipPath>
</defs>
</svg>
