<svg width="172" height="40" viewBox="0 0 172 40" fill="none" xmlns="http://www.w3.org/2000/svg">
<g clip-path="url(#clip0_155_424)">
<path d="M19.9694 0C8.94245 0 0 8.95414 0 19.9955C0 31.0368 8.94245 39.991 19.9694 39.991C30.9963 39.991 39.9387 31.0368 39.9387 19.9955C39.9387 8.95414 31.0053 0 19.9694 0ZM19.9694 30.6031C13.1204 30.6031 7.56183 25.0373 7.56183 18.1794C7.56183 11.3214 13.1204 5.75559 19.9694 5.75559C26.8183 5.75559 32.3769 11.3214 32.3769 18.1794C32.3769 25.0373 26.8183 30.6031 19.9694 30.6031Z" fill="#98A0A7"/>
<path d="M27.6576 22.5527C27.6576 26.7994 24.2196 30.2509 19.9694 30.2509C15.7193 30.2509 12.2812 26.8084 12.2812 22.5527C12.2812 18.297 15.7193 14.8545 19.9694 14.8545C24.2196 14.8545 27.6576 18.297 27.6576 22.5527Z" fill="#98A0A7"/>
<path d="M102.175 9.22535H91.9512C91.5 9.22535 91.13 9.59581 91.13 10.7704V29.9166C91.13 30.3774 91.5 30.7478 91.9512 30.7478H102.175C102.626 30.7478 102.996 30.3774 102.996 29.9256V28.507C102.996 28.0553 102.626 27.6848 102.175 27.6848H94.9741C94.5229 27.6848 94.1529 27.3234 94.1529 26.8626V22.39C94.1529 21.9383 94.5139 21.5678 94.9741 21.5678H100.668C101.119 21.5678 101.489 21.1973 101.489 20.7456V19.327C101.489 18.8752 101.119 18.5048 100.668 18.5048H94.9741C94.5229 18.5048 94.1529 18.1343 94.1529 17.6825V13.0654C94.1529 12.6137 94.5139 12.2432 94.9741 12.2432H102.175C102.626 12.2432 102.996 11.8727 102.996 11.421V10.0024C102.996 9.55063 102.626 9.18018 102.175 9.18018" fill="#98A0A7"/>
<path d="M125.339 27.6936H118.147C117.696 27.6936 117.326 27.3231 117.326 26.8714V10.0473C117.326 9.59555 116.956 9.2251 116.504 9.2251H115.106C114.655 9.2251 114.285 9.59555 114.285 10.0473V29.9344C114.285 30.3862 114.646 30.7566 115.106 30.7566H125.33C125.781 30.7566 126.151 30.3862 126.151 29.9344V28.5158C126.151 28.064 125.781 27.6936 125.33 27.6936" fill="#98A0A7"/>
<path d="M80.3106 9.2251H78.6232C78.2803 9.2251 77.9735 9.43292 77.8381 9.74916L72.5683 22.5072C72.3968 22.9229 71.8103 22.9048 71.6569 22.4892L67.2443 9.7853C66.9736 9.04439 65.9269 9.03536 65.6562 9.77627L61.0451 22.4892C60.8826 22.9048 60.2961 22.9138 60.1337 22.4892L55.1887 9.76723C55.0624 9.44195 54.7465 9.2251 54.3946 9.2251H52.6892C52.0846 9.2251 51.6785 9.83048 51.9041 10.3907L59.7998 30.1874C60.0886 30.9102 61.1082 30.9012 61.388 30.1693L65.972 17.4745C66.1164 17.086 66.6668 17.086 66.8112 17.4745L71.2057 30.1512C71.4674 30.8831 72.4871 30.9012 72.7848 30.1874L81.0956 10.3907C81.3303 9.83048 80.9152 9.20703 80.3106 9.20703" fill="#98A0A7"/>
<path d="M171.928 29.5009L163.626 9.79451C163.319 9.06264 162.282 9.06264 161.975 9.79451L153.673 29.5009C153.42 30.0882 153.853 30.7477 154.494 30.7477H155.875C156.236 30.7477 156.57 30.5219 156.705 30.1876L158.708 25.2C158.844 24.8566 159.168 24.6398 159.538 24.6398H166.053C166.414 24.6398 166.748 24.8657 166.884 25.2L168.887 30.1876C169.022 30.5309 169.356 30.7477 169.717 30.7477H171.098C171.738 30.7477 172.172 30.0972 171.919 29.5009M164.763 21.5858H160.829C160.513 21.5858 160.296 21.2605 160.414 20.9714L162.381 16.0742C162.534 15.6947 163.067 15.6947 163.211 16.0742L165.178 20.9714C165.295 21.2695 165.079 21.5858 164.763 21.5858Z" fill="#98A0A7"/>
<path d="M141.852 18.1341L139.786 17.2847C139.686 17.2486 139.605 17.1944 139.515 17.1492C139.073 16.9594 138.685 16.7516 138.396 16.5709C138.288 16.5077 138.224 16.4625 138.134 16.3902C138.071 16.345 138.008 16.2818 137.963 16.2276C137.954 16.2185 137.936 16.2095 137.927 16.1914C137.809 16.083 137.71 15.9746 137.638 15.8842C137.259 15.4596 137.069 15.062 137.069 14.5108C137.069 13.1555 138.549 11.9899 140.354 11.9899C141.762 11.9899 142.836 12.6586 143.341 13.6615C143.548 14.0681 144.018 14.303 144.496 14.2036L145.281 13.8784C145.886 13.7519 146.219 13.1555 145.967 12.6495C144.74 10.1106 142.691 9.24316 140.571 9.24316C138.802 9.24316 137.151 9.75819 135.959 10.8063C134.768 11.8544 134.164 13.1555 134.173 14.7096C134.2 17.4022 135.707 18.7033 138.54 19.905C138.54 19.905 140.047 20.6007 140.498 20.8086C141.626 21.3326 142.411 21.6217 142.845 22.2181C143.278 22.8144 143.26 22.9138 143.377 23.2481C143.494 23.5824 143.548 23.9529 143.548 24.3595C143.548 25.3624 143.269 26.1033 142.619 26.7629C141.978 27.4135 141.094 27.793 140.119 27.793C138.883 27.793 137.891 27.3593 137.25 26.4648C136.988 26.1214 136.781 25.6877 136.627 25.001C136.528 24.5312 136.041 24.1969 135.499 24.2691L134.444 24.5312C133.857 24.6035 133.487 25.1185 133.613 25.6335C133.974 27.1063 134.633 28.2809 135.581 29.1573C136.79 30.2506 138.324 30.7837 140.192 30.7566C141.68 30.7295 143.142 30.2416 144.252 29.3471C145.877 28.0369 146.68 26.3112 146.68 24.1517C146.68 22.7331 146.292 21.6127 145.516 20.6278C144.74 19.652 143.512 18.8208 141.834 18.1431" fill="#98A0A7"/>
</g>
<defs>
<clipPath id="clip0_155_424">
<rect width="172" height="40" fill="white"/>
</clipPath>
</defs>
</svg>
