<svg width="556" height="125" viewBox="0 0 556 125" fill="none" xmlns="http://www.w3.org/2000/svg">
<path d="M26.55 24.15H21.55C21.7 23.55 21.85 22.95 22 22.3L21.85 21.8L16.1 20.4L15.65 20.6C14.9 24.95 13.4 29 11 32.8C11.25 30.5 11.4 28.15 11.4 25.75V20H39.5L47.8 20.15L48.15 19.8V14.65L47.8 14.3L39.5 14.45H36.65C37.2 13.1 37.6 11.75 38 10.4H39.2L46.25 10.55L46.6 10.2V5.05001L46.25 4.75001L39.2 4.85001H29.55V1.30001L29.2 0.950012H22.5L22.15 1.35001V4.85001H12.25L5.30002 4.75001L4.90002 5.00001V10.15L5.25002 10.55L12.25 10.4H14.45C14.9 11.75 15.2 13.1 15.5 14.45H13.25L4.95002 14.3L4.60002 14.65L4.75002 21.35V26C4.75002 32.6 3.80002 37.95 0.650024 43.5L5.25002 47.9C5.50002 48.1 5.70002 48.2 5.85002 48.2C6.00002 48.2 6.10002 48.1 6.25002 47.9C8.45003 44.55 9.95003 39.85 10.75 34.55L14.55 37C14.9 37.25 15.15 37.4 15.35 37.4C15.55 37.4 15.75 37.25 15.95 36.95C16.7 35.85 17.4 34.75 18 33.6V37.95L18.35 38.3L25.9 38.15H26.55V41.5H19.1L11.3 41.35L10.95 41.7V46.85L11.3 47.2L19.1 47.05H39.35L47.15 47.2L47.5 46.85V41.7L47.15 41.35L39.35 41.5H33.3V38.15H35.15L42.7 38.3L43.05 37.95V32.95L42.7 32.6L35.15 32.75H33.3V29.6H37.95L45.5 29.75L45.85 29.4V24.35L45.5 24L37.95 24.15H33.3V21.35L33 20.95H26.9L26.55 21.3V24.15ZM26.55 29.6V32.75H25.9L18.5 32.6C19 31.6 19.45 30.6 19.85 29.6H26.55ZM30.9 10.4C30.5 11.75 30.1 13.1 29.65 14.45H22.6C22.3 13.1 21.9 11.75 21.45 10.4H30.9Z" fill="#3D4851"/>
<path d="M83.4 22.7H91.25L99.55 22.85L99.9 22.5V17.7L99.55 17.35L91.25 17.5H90.45C90.9 16.4 91.4 15.3 91.75 14.15H94.65L102.7 14.3L103.05 13.95V9.05001L102.7 8.70001L96.5 8.80001C97.35 7.40001 98.15 5.95001 98.7 4.85001L98.55 4.35001L92.4 2.35001L91.9 2.55001C91.4 4.40001 90.5 6.70001 89.4 8.85001H87.9V1.50001L87.5 1.15001H81.45L81.1 1.55001V8.85001H78.65V1.50001L78.25 1.15001H72.4L72.05 1.55001V8.85001H70.45C69.6 6.75001 68.45 4.40001 67.5 2.75001L67.1 2.60001L61.85 4.35001L61.6 4.75001C62.2 5.80001 62.9 7.30001 63.5 8.80001L57.25 8.70001L56.9 9.05001V13.95L57.25 14.3L65.3 14.15H69.15C69.5 15.25 69.85 16.35 70.1 17.5H68.9L60.6 17.35L60.25 17.7V22.5L60.6 22.85L68.9 22.7H76.45V24.65H71.75L63.45 24.5L63.1 24.85V29.5L63.45 29.85L71.75 29.7H76.45V31.7H65.6L57.55 31.55L57.2 31.9V36.7L57.55 37.05L65.6 36.9H72.8C68.25 39.4 62.5 41.55 55.55 43.3L59.35 48.2C59.55 48.45 59.7 48.65 60.1 48.65C60.25 48.65 60.45 48.6 60.75 48.5C66.8 46.55 72.15 44 76.55 41.1L76.2 49H83.65L83.3 40.8C87.7 43.85 92.75 46.05 99.45 47.95C99.7 48.05 99.95 48.05 100.1 48.05C100.4 48.05 100.55 47.95 100.7 47.7L104.5 42.35C97.6 41 91.9 39.3 86.95 36.9H94.4L102.7 37.05L103.05 36.7V31.9L102.7 31.55L94.4 31.7H83.4V29.7H88.45L96.75 29.85L97.1 29.5V24.85L96.75 24.5L88.45 24.65H83.4V22.7ZM84.3 14.15C84.05 15.3 83.8 16.4 83.5 17.5H77.1C76.75 16.35 76.4 15.25 75.95 14.15H84.3Z" fill="#3D4851"/>
<path d="M137 49H144.55L144 35.45C146.5 39.15 150.25 43.15 153.7 45.75C153.95 45.95 154.2 46.05 154.45 46.05C154.8 46.05 155.1 45.8 155.35 45.45L159.2 40.3C154.9 37.8 150.6 34.45 147.2 30.8H150.9L158.05 30.95L158.35 30.7V25.15L158.05 24.9L150.9 25.05H144.2V20.75H148.85L153.95 20.9L154.35 20.45L154.2 15.35V8.80001L154.35 4.05001L154 3.70001L149.2 3.85001H132.75L127.95 3.70001L127.6 4.05001L127.75 8.80001V15.2L127.5 20.5L127.85 20.9L133.05 20.75H137.3V25.05H131.05L124.15 24.9L123.85 25.2V30.65L124.2 30.95L131.05 30.8H134.75C131.3 34.75 127.3 38.3 122.85 41.1V13.9C123.9 10.65 124.85 7.05001 125.85 2.90001L125.6 2.45001L119.35 1.10001L118.9 1.35001C117.5 10.15 114.95 17.95 111.15 24.7L113 31.6C113.1 31.95 113.3 32.15 113.55 32.15C113.75 32.15 114 32 114.2 31.65C114.95 30.4 115.45 29.5 116.1 28V33.55L115.85 49H122.85V42.05L126.1 45.7C126.45 46.1 126.75 46.3 127.1 46.3C127.35 46.3 127.6 46.2 127.9 46C131.25 43.6 134.9 40.2 137.5 36.65L137 49ZM134.6 15.1V9.40001H147.15V15.1H134.6Z" fill="#3D4851"/>
<path d="M175.75 45.45L178.55 48.45C178.85 48.75 179.1 48.95 179.35 48.95C179.55 48.95 179.8 48.8 180.1 48.5C181.65 46.9 182.9 45.15 183.95 43.3C187.25 46.1 191.75 47.85 199.2 47.9C201.85 47.9 207.05 47.95 211.2 47.9C211.75 47.9 211.9 47.85 212.1 47.4L214.55 41.3C208.25 41.7 203.5 41.85 199.45 41.8C192.6 41.75 189.15 40.25 186.4 37.85C187.95 33.2 188.6 28.1 189 22.5C189.1 21.45 189.1 21.05 188.7 20.65L186.7 18.75L184.35 18.85C185.8 16 187.25 12.75 188.8 8.75001C188.9 8.45001 189 8.15001 189 7.95001C189 7.55001 188.85 7.25001 188.5 6.90001L186.25 4.55001L183.05 4.70001H181.15L178 4.55001L177.7 4.85001C177.8 4.20001 177.95 3.55001 178.05 2.85001L177.8 2.40001L172.3 1.05001L171.85 1.30001C170.6 10.1 168.35 18.25 165.4 24.2L167.15 30.65C167.25 31 167.4 31.2 167.65 31.2C167.85 31.2 168.1 31.05 168.3 30.7C168.9 29.7 169.2 29.2 169.5 28.55V33.55L169.25 49H175.75V45.45ZM175.75 23.95L180.5 25.85C180.95 25.1 181.35 24.4 181.8 23.65H183.2C183 27 182.75 29.7 182.3 32.1C181.65 30.45 181.25 28.6 180.8 26.6L180.3 26.4L176.4 28.35L176.15 28.9C176.9 32.4 177.95 35.7 179.85 38.75C178.75 40.7 177.3 42.45 175.75 44.05V23.95ZM175.75 13.3C176.45 10.6 177.1 7.85001 177.65 5.10001V10.05L178 10.4L181.15 10.25H181.8C180.25 14.05 178.2 18.3 175.75 22.15V13.3ZM196.45 16.35V18.7L190.55 18.55L190.25 18.85V23.15L190.55 23.45L196.45 23.35V25.2L190 25.05L189.65 25.4V29.95L190 30.3L196.4 30.15L196.35 32H195.4L188.65 31.9L188.35 32.2V36.85L188.65 37.2L195.4 37.05H196.25L196.15 40.8H202.7L202.65 37.05H206L213 37.2L213.3 36.85V32.2L213 31.9L206 32H202.55L202.5 30.15H204.25L210.85 30.3L211.3 29.95V25.4L211 25.05L204.25 25.2H202.45V23.35H203.8L210.7 23.45L211 23.15L210.85 17.8V16.7L213.9 16.8L214.25 16.45V11.65L213.9 11.3L210.85 11.4V9.75001L210.95 5.15001L210.65 4.80001L203.75 4.95001H202.45V1.40001L202.15 1.10001H196.75L196.45 1.40001V4.95001L190.85 4.80001L190.5 5.15001V9.35001L190.85 9.65001L196.45 9.55001V11.7H195.1L188.35 11.6L188.05 11.9V16.1L188.35 16.45L194.8 16.35H196.45ZM202.45 16.35H204.8V18.7H202.45V16.35ZM202.45 11.7V9.55001H204.8V11.7H202.45Z" fill="#3D4851"/>
<path d="M248.4 22.7H256.25L264.55 22.85L264.9 22.5V17.7L264.55 17.35L256.25 17.5H255.45C255.9 16.4 256.4 15.3 256.75 14.15H259.65L267.7 14.3L268.05 13.95V9.05001L267.7 8.70001L261.5 8.80001C262.35 7.40001 263.15 5.95001 263.7 4.85001L263.55 4.35001L257.4 2.35001L256.9 2.55001C256.4 4.40001 255.5 6.70001 254.4 8.85001H252.9V1.50001L252.5 1.15001H246.45L246.1 1.55001V8.85001H243.65V1.50001L243.25 1.15001H237.4L237.05 1.55001V8.85001H235.45C234.6 6.75001 233.45 4.40001 232.5 2.75001L232.1 2.60001L226.85 4.35001L226.6 4.75001C227.2 5.80001 227.9 7.30001 228.5 8.80001L222.25 8.70001L221.9 9.05001V13.95L222.25 14.3L230.3 14.15H234.15C234.5 15.25 234.85 16.35 235.1 17.5H233.9L225.6 17.35L225.25 17.7V22.5L225.6 22.85L233.9 22.7H241.45V24.65H236.75L228.45 24.5L228.1 24.85V29.5L228.45 29.85L236.75 29.7H241.45V31.7H230.6L222.55 31.55L222.2 31.9V36.7L222.55 37.05L230.6 36.9H237.8C233.25 39.4 227.5 41.55 220.55 43.3L224.35 48.2C224.55 48.45 224.7 48.65 225.1 48.65C225.25 48.65 225.45 48.6 225.75 48.5C231.8 46.55 237.15 44 241.55 41.1L241.2 49H248.65L248.3 40.8C252.7 43.85 257.75 46.05 264.45 47.95C264.7 48.05 264.95 48.05 265.1 48.05C265.4 48.05 265.55 47.95 265.7 47.7L269.5 42.35C262.6 41 256.9 39.3 251.95 36.9H259.4L267.7 37.05L268.05 36.7V31.9L267.7 31.55L259.4 31.7H248.4V29.7H253.45L261.75 29.85L262.1 29.5V24.85L261.75 24.5L253.45 24.65H248.4V22.7ZM249.3 14.15C249.05 15.3 248.8 16.4 248.5 17.5H242.1C241.75 16.35 241.4 15.25 240.95 14.15H249.3Z" fill="#3D4851"/>
<path d="M296.05 17.6L292.15 17.85H290.5L292.2 16.15L292.15 15.65C291.6 15.2 291.05 14.7 290.5 14.25C293.05 11.95 295.15 9.70001 296.9 7.60001C297.35 7.05001 297.55 6.65001 297.55 6.30001C297.55 6.00001 297.4 5.70001 297.05 5.40001L294.55 2.90001L290.65 3.15001H284.75L277.9 3.00001L277.5 3.35001V8.00001L277.85 8.30001L284.75 8.15001H289.1C288.4 9.10001 287.45 10 286.25 11.05C285.25 10.35 284.25 9.70001 283.2 9.10001L282.6 9.15001L279.45 12.1L279.5 12.55C282.1 14.2 284.25 15.95 286.35 17.85H283.5L276.75 17.7L276.35 18.05V22.9L276.7 23.2L282.7 23.05C280.9 27.45 278.5 31.3 275.5 34.55L278.25 39.5C278.35 39.7 278.5 39.75 278.65 39.75C278.85 39.75 279.1 39.65 279.3 39.35C281 37.35 282.35 35.25 283.55 33V41.25C283.55 42.45 283.25 42.75 282.2 42.85C281.35 42.95 280.85 42.95 278.5 42.95L280.85 48.45C281.05 48.95 281.15 49.05 282.15 49.05C289.35 49.05 290.3 47.55 290.3 43.85L290.05 35.1V27.85L294.05 29.6C294.25 29.7 294.45 29.75 294.65 29.75C294.9 29.75 295.1 29.6 295.25 29.35C296.1 27.85 296.7 26.65 297.3 25.5L299.05 28.15C299.25 28.45 299.45 28.55 299.75 28.55C299.9 28.55 300.1 28.5 300.35 28.45C302 27.95 303.5 27.4 304.95 26.8C304.95 28 304.9 29.15 304.8 30.3H303.25L296.65 30.15L296.35 30.5V35.8L296.7 36.05L303.25 35.9H303.8C303.5 36.75 303.15 37.5 302.75 38.2C300.95 41.25 297.75 42.9 292.5 43.95L296.1 48.8C296.25 49 296.5 49.1 296.75 49.1C296.95 49.1 297.15 49.05 297.35 49C303 47.7 306.7 45 308.95 40.7C309.7 39.25 310.25 37.65 310.7 35.9H315C314.95 38.4 314.7 40.4 314.4 41.65C314.2 42.45 313.45 42.7 312.65 42.75C311.3 42.8 310.1 42.85 308.7 42.75L310.65 48.25C310.85 48.75 311.05 48.9 311.65 48.9H313.3C316.95 48.9 318.45 48.25 319.7 47C321.3 45.4 321.7 41.85 322 30.5L321.7 30.2L316.2 30.3H311.55C311.65 29.1 311.7 27.9 311.7 26.6L311.35 26.25L306.55 26.1C307.9 25.45 309.15 24.65 310.4 23.85C313.2 25.55 316.5 27 320.3 28C320.7 28.1 320.95 28.15 321.1 28.15C321.35 28.15 321.45 28.05 321.55 27.8L324.45 21.75C320.75 21.15 317.7 20.35 315.2 19.25C316.95 16.9 318.25 14.25 319 11.4L322.85 11.5L323.2 11.15V6.20001L322.85 5.85001L316.3 6.00001H307.85C308.3 5.05001 308.7 4.05001 309.1 3.05001L308.95 2.55001L303.85 1.00001L303.35 1.10001C301.4 6.35001 298.4 10.75 294.85 14L299 17.2C299.3 17.45 299.5 17.55 299.7 17.55C299.85 17.55 300.05 17.45 300.25 17.25C300.85 16.65 301.45 16.05 302 15.35C302.85 16.9 303.95 18.25 305.1 19.55C303.15 20.7 301 21.5 298.85 22.15C299 21.8 299.1 21.5 299.1 21.25C299.1 20.9 298.95 20.6 298.55 20.2L296.05 17.6ZM312.15 11.35C311.55 12.9 310.7 14.35 309.7 15.65C308.45 14.4 307.45 12.95 306.7 11.35H312.15ZM290.05 23.05H292.3C291.75 24.35 291.2 25.45 290.05 27.25V23.05Z" fill="#3D4851"/>
<path d="M333.1 29.6L337.5 34.5L338 34.45C341.1 31.15 344.5 27.95 346.7 26.35C348.45 25.1 350.4 24.6 352.4 24.6C353.9 24.6 354.65 25.25 354.9 26.5C353.8 27 352.8 27.5 351.9 28C347.25 30.65 343.2 34 343.2 38.8C343.2 43.1 345.85 47.35 355.95 47.35C361.8 47.35 366 47.1 370.75 46.7L371.05 46.3L370.6 39.65L370.1 39.35C365.7 40 360.7 40.45 357.05 40.4C352.6 40.35 350.6 39.9 350.6 38.2C350.6 36.5 352.3 35.1 355.35 33.65C355.35 34.8 355.35 36.3 355.35 37.75L355.75 38.05L362.35 37.8L362.7 37.5C362.65 35.1 362.6 32.65 362.5 30.7C366.2 29.35 370.5 28.05 375.55 26.75L375.8 26.3L372.7 20.15L372.2 19.95C368.3 21.25 364.75 22.5 361.6 23.7C360.85 20.85 358.6 18.9 355.5 18.9C353.5 18.9 352.3 19.1 350.8 19.55C351.8 18.35 352.9 16.8 353.7 15.6C357.85 15.1 361.95 14.45 365.6 13.7L365.9 13.25L365.4 7.35001L364.95 7.10001C362.45 7.70002 359.95 8.15001 357.45 8.55001C358 7.10001 358.6 5.60002 359.2 3.85001L358.9 3.50001L352.05 2.50001L351.65 2.75001C350.95 5.20001 350.2 7.40001 349.3 9.45001C345.6 9.70001 341.9 9.80001 338.15 9.80001L337.8 10.1L338 16.25L338.3 16.55C340.65 16.55 343.15 16.5 345.55 16.3C342.65 20.65 338.7 24.5 333.1 29.05V29.6Z" fill="#3D4851"/>
<path d="M4.00002 120.15L10.6 121.8L11.15 121.65C13.9 111.95 16.4 104.2 19.75 94.7C21 94.6 22.15 94.5 23.05 94.5C25.25 94.5 25.6 95.1 25.6 98.1C25.6 102.45 24.6 108.6 23.8 111.15C23.05 113.5 22.35 113.8 20.75 113.8C19.55 113.8 17.35 113.3 15.75 112.7L16.35 119.8C16.4 120.5 16.55 120.6 16.9 120.7C19.1 121.3 21.2 121.6 23.05 121.6C25.7 121.6 29 120.4 30.8 114.75C32.15 110.85 33.05 104.25 33.1 97.65C33.15 90.35 29.25 87.8 25.1 87.8C24.15 87.8 23.2 87.85 22.2 87.9C23.05 85.45 24 82.8 25.05 79.95L24.9 79.4L18.15 77.75L17.65 78C16.35 81.85 15.2 85.4 14 88.85C10.55 89.35 6.85002 89.8 2.90002 90.1L2.60002 90.45L3.70002 96.5L4.10002 96.8C6.60002 96.5 9.30002 96.15 11.6 95.8C9.05002 103.45 6.55002 111.05 3.85002 119.75L4.00002 120.15ZM33.55 90.2C37.35 94.45 40.2 100.35 42.15 106.1L42.6 106.2L48.85 102.6L49.05 102.1C46.9 96.45 43.7 91 39.45 86.35H38.95L33.65 89.7L33.55 90.2Z" fill="#3D4851"/>
<path d="M74.05 78.75C67.65 91.35 61.35 103.9 55.2 117.7L55.35 118.25L62.05 120.7L62.55 120.5C64.7 115.1 66.65 110.75 68.65 107.2C70.3 104.25 72.25 102.05 74.75 102.05C76.4 102.05 76.95 102.7 76.95 105.3C76.95 107.95 76.7 111.2 76.7 113.4C76.7 118.35 79.6 121 85.3 121C91.05 121 96.35 117.35 100.5 109.55C100.95 108.65 100.9 108.4 100.4 107.7L95.95 101.75C92.3 109.55 88.75 113.05 85.65 113.05C84.4 113.05 84.2 112.1 84.25 110.65C84.3 109.2 84.4 106.25 84.35 103.15C84.3 99.1 81.65 96.05 76.75 96.05C75.35 96.05 74.3 96.35 72.85 97.15C75.5 92.25 78.15 87.8 81.35 81.95L81.2 81.4L74.55 78.6L74.05 78.75Z" fill="#3D4851"/>
<path d="M110.45 120.55L117.25 122.05L117.7 121.85C120.25 111.6 122.7 102.45 125.35 93.2C128.15 92.75 131 92.25 133.7 91.75L134.05 91.35L133.6 85.1L133.2 84.9C131.35 85.3 129.35 85.7 127.35 86.05C127.9 84.05 128.55 81.8 129.2 79.75L128.85 79.3L122 78.25L121.55 78.5C120.75 81.45 119.95 84.4 119.2 87.2C116.15 87.6 112.9 87.95 109.2 88.25L108.85 88.65L109.35 94.7L109.75 95.05C112.25 94.9 114.75 94.65 117.3 94.35C115.05 102.55 112.8 110.65 110.25 120.15L110.45 120.55ZM126.95 116.15C129.85 119.65 132.65 121.7 141.4 121.7C145.5 121.7 147.75 121.55 150.85 121.15L151.15 120.75V113.75L150.75 113.55C148 114.1 144.7 114.35 141.65 114.35C135.95 114.35 133.6 113.65 131.1 110.95L130.6 111L126.95 115.6V116.15ZM132 100.8C134.25 100.65 136.35 100.55 138.4 100.55C141.95 100.55 145.25 100.75 148.65 101.05L149.1 100.75L149.6 94.55L149.25 94.15C146.4 93.75 143.15 93.55 139.75 93.55C137.4 93.55 134.95 93.65 132.45 93.85L132.1 94.3L131.65 100.45L132 100.8Z" fill="#3D4851"/>
<path d="M179.05 78.75C172.65 91.35 166.35 103.9 160.2 117.7L160.35 118.25L167.05 120.7L167.55 120.5C169.7 115.1 171.65 110.75 173.65 107.2C175.3 104.25 177.25 102.05 179.75 102.05C181.4 102.05 181.95 102.7 181.95 105.3C181.95 107.95 181.7 111.2 181.7 113.4C181.7 118.35 184.6 121 190.3 121C196.05 121 201.35 117.35 205.5 109.55C205.95 108.65 205.9 108.4 205.4 107.7L200.95 101.75C197.3 109.55 193.75 113.05 190.65 113.05C189.4 113.05 189.2 112.1 189.25 110.65C189.3 109.2 189.4 106.25 189.35 103.15C189.3 99.1 186.65 96.05 181.75 96.05C180.35 96.05 179.3 96.35 177.85 97.15C180.5 92.25 183.15 87.8 186.35 81.95L186.2 81.4L179.55 78.6L179.05 78.75Z" fill="#3D4851"/>
<path d="M233.1 86.15V92.35L233.45 92.8C235.05 92.9 236.6 92.9 238.2 92.9C243.65 92.9 248.9 92.45 252.65 91.65L252.95 91.25L252.65 84.95L252.3 84.65C247.3 85.5 242.95 85.85 238.2 85.85C236.65 85.85 235.05 85.8 233.4 85.75L233.1 86.15ZM255.45 117.25L255 110.55L254.55 110.25C251.1 110.95 246.85 111.3 245.2 111.3C238.5 111.35 236.55 109.85 235.6 105.15L235.15 105L229.8 107.45L229.55 107.9C230.75 113.45 233.4 118.5 243.45 118.5C248.2 118.5 251.8 118.2 255.2 117.7L255.45 117.25ZM218.65 81C218.6 83.95 218.1 86.6 217.35 89.9C216.2 94.5 215.15 100.6 215.15 105.1C215.15 112.3 216.55 116.35 217.65 118.2C218.8 120.2 220 121.3 222 121.25C224.3 121.2 225.4 119.8 225.45 117.55C225.55 114.4 226.3 111.25 227.8 107L226.35 106.25C225.65 107.25 224.6 108.6 223.8 109.5C223.05 110.25 222.55 110.2 222.4 109.55C222.15 108.45 222.1 107.15 222.1 104.5C222.1 101.2 222.8 97.05 223.95 92.9C225.45 87.8 226.1 84.95 226.25 82.05L225.95 81.65L219.05 80.7L218.65 81Z" fill="#3D4851"/>
<path d="M269.1 108.9L264.25 112.9V113.35C267.45 115.55 271.2 119.3 274.4 123.75H274.85L280 119.1V118.7C276.8 114.5 273.55 111.55 269.6 108.85L269.1 108.9Z" fill="#3D4851"/>
<path d="M313.6 103.3H341.55L349.85 103.45L350.2 103.1V96.1L349.85 95.75L341.55 95.9H313.6L305.3 95.75L304.95 96.1V103.1L305.3 103.45L313.6 103.3Z" fill="#3D4851"/>
<path d="M384.45 97.85H394.55L403.1 98L403.45 97.65V92.2L403.1 91.85L394.55 92H384.45V87.5H390.4L398.7 87.65L399.05 87.3V81.85L398.7 81.5L390.4 81.65H384.45V76.55L384.15 76.25H377.5L377.25 76.55V92H371V80.9L370.7 80.6H364.25L364 80.9V91.95L357.05 91.85L356.6 92.1V97.65L356.95 98L365.5 97.85H377.25V105.95C377.25 107.15 376.95 107.45 375.9 107.55C375.05 107.65 373.5 107.65 371.15 107.65L373.7 113.45C374 114.1 374.2 114.25 375.05 114.25C381.45 114.25 384.65 112.75 384.65 107.1L384.45 99.65V97.85ZM360.9 123.4C361.25 123.95 361.45 124.05 362.1 124C376.1 123.45 387.7 121.1 396.35 111.85L396.3 111.35L391.05 107.5L390.5 107.55C383.25 115.8 372.05 117.3 357.35 117.55L360.9 123.4ZM368.05 98.75L367.6 98.8C364.8 102.55 362.05 105.15 357.05 108L361.35 112.4C361.6 112.65 361.85 112.8 362.1 112.8C362.35 112.8 362.6 112.65 362.95 112.45C367.15 109.85 370.95 106.25 373.55 102.45L373.5 101.9L368.05 98.75ZM403.45 107.2L403.5 106.65C399.55 103.25 395.65 100.6 391.8 98.65L391.25 98.7L386.95 102.45V102.85C391.45 105.5 394.55 108 398.35 111.8L398.95 111.85L403.45 107.2Z" fill="#3D4851"/>
<path d="M457 115.9C448.4 116.55 438.1 117 431.9 116.75C426.95 116.55 423.2 115.8 421.55 112.8V103.65L421.7 96.15L421.35 95.8L414.9 95.95H413.85L409.35 95.8L409.05 96.1V101.8L409.4 102.1L413.85 101.95H414.85V112.7C412.65 113.9 410.75 115.05 408.3 116.6L408.15 117.05L411.7 122.9L412.15 123.1C414.2 121.2 416.25 119.4 418.15 117.8C421.1 121.55 425.2 122.5 429.5 122.8C432.65 123.05 436.7 123.15 441.1 123.15C444.95 123.15 449.15 123.05 453.3 122.9C453.85 122.9 454 122.9 454.2 122.4L457 115.9ZM434 83.45C434.9 81.85 435.7 80.25 436.4 78.55L436.25 78.05L430.6 76.15L430.1 76.35C428 81.95 424.25 87.4 419.5 91.8L423.25 95.65C423.55 95.95 423.8 96.15 424.05 96.15C424.3 96.15 424.55 96 424.85 95.7C425.2 95.35 425.6 94.95 425.95 94.55V102.1L425.7 115.55H432.7V113.45H448.95L455.1 113.6L455.45 113.25V108.15L455.1 107.9L448.95 108.05H445.2V104.8H447.35L453.6 104.95L453.95 104.7V99.9L453.6 99.6L447.35 99.75H445.2V96.7H447.25L453.5 96.85L453.85 96.6V91.7L453.5 91.45L447.25 91.6H445.2V88.65H448.65L454.85 88.75L455.2 88.5V83.55L454.85 83.3L448.65 83.45H445.85C446.8 82 447.75 80.3 448.5 78.85L448.25 78.35L442.4 76.6L441.95 76.85C441.15 78.95 440.05 81.35 438.95 83.45H434ZM432.7 88.65H438.6V91.6H432.7V88.65ZM432.7 96.7H438.6V99.75H432.7V96.7ZM432.7 104.8H438.6V108.05H432.7V104.8ZM422.05 84.55L422.1 84C419.65 81.3 417.45 79.5 414.8 77.7L414.2 77.6L409.8 81.15L409.75 81.55C412.9 83.9 414.7 85.8 416.8 88.5H417.45L422.05 84.55Z" fill="#3D4851"/>
<path d="M484.05 113.8L488.55 109.1V108.6C487.85 107.9 487.2 107.2 486.6 106.6C489 102.6 490.8 98.9 492.4 94.3C496.2 95.45 498.65 99.15 498.65 104.05C498.65 109.65 494.05 113.5 484.75 115.3L490.25 120.3C490.65 120.65 490.9 120.75 491.6 120.65C500.75 117.85 506.1 112.8 506.1 103.9C506.1 95.65 500.55 90 494.3 88.4C494.75 86.7 495.4 83.85 495.75 81.75L495.45 81.3L488.8 80L488.35 80.35C487.95 83.1 487.35 85.6 486.8 87.6C483.75 87.75 479.25 88.75 475.85 90.65C474.9 88.6 474 86.25 472.95 83.75L472.5 83.6L466.95 86.1L466.8 86.55C468 89.45 469.1 92.15 470.25 94.7C466.05 98.8 464.2 103.05 464.2 108.5C464.2 114.55 468.15 117.45 471.9 117.45C475.45 117.45 478.55 116.15 482.15 112.4C482.6 112.85 483.05 113.4 483.55 113.85L484.05 113.8ZM473.3 100.55C474.6 102.8 476 105 477.6 107.05C475.45 109.6 474 110.3 472.6 110.3C471.65 110.3 470.85 109.6 470.85 107.5C470.85 106.15 471.4 103.25 473.3 100.55ZM481.9 101.15C480.8 99.6 479.5 97.65 478.6 96C480.55 94.95 482.95 94.15 485 93.9C484.3 96.1 483.05 99.15 481.9 101.15Z" fill="#3D4851"/>
<path d="M524.65 89.75C529.25 88.45 533.65 87.4 537.45 86.6C530.8 93.2 524.5 100.1 517.6 108L517.65 108.55L523 112.85L523.5 112.8C528.8 105.95 533.95 101.25 541.1 101.25C545.25 101.25 547.9 104.05 547.9 107.55C547.9 111.05 547 113.4 544.05 114.8C542.7 111.3 539.85 107.4 533.9 107.4C529.85 107.4 526.25 111.1 526.25 114.35C526.25 120.05 531.25 122.5 537.15 122.5C548.7 122.5 555.55 117.35 555.55 108.25C555.55 100.5 550.5 95.35 542.95 95.35C540.85 95.35 539.1 95.45 536.7 96.65C540.85 92.55 543.65 90 547.7 86C548.45 85.25 548.6 84.3 548.6 83.4C548.6 81 546.5 79.05 544 79.05C538.55 79.75 530.85 80.95 523.25 82.65L522.95 83.1L524.25 89.5L524.65 89.75ZM537.8 116.4C537.4 116.5 536.9 116.55 536.2 116.55C533.65 116.55 532.5 115.6 532.5 114.55C532.5 113.65 533.4 113.25 534.4 113.25C535.6 113.25 537.3 114.25 537.8 116.4Z" fill="#3D4851"/>
</svg>
