<svg width="333" height="75" viewBox="0 0 333 75" fill="none" xmlns="http://www.w3.org/2000/svg">
<path d="M69.93 14.09H66.93C67.02 13.73 67.11 13.37 67.2 12.98L67.11 12.68L63.66 11.84L63.39 11.96C62.94 14.57 62.04 17 60.6 19.28C60.75 17.9 60.84 16.49 60.84 15.05V11.6H77.7L82.68 11.69L82.89 11.48V8.39L82.68 8.18L77.7 8.27H75.99C76.32 7.46 76.56 6.65 76.8 5.84H77.52L81.75 5.93L81.96 5.72V2.63L81.75 2.45L77.52 2.51H71.73V0.379999L71.52 0.169998H67.5L67.29 0.409999V2.51H61.35L57.18 2.45L56.94 2.6V5.69L57.15 5.93L61.35 5.84H62.67C62.94 6.65 63.12 7.46 63.3 8.27H61.95L56.97 8.18L56.76 8.39L56.85 12.41V15.2C56.85 19.16 56.28 22.37 54.39 25.7L57.15 28.34C57.3 28.46 57.42 28.52 57.51 28.52C57.6 28.52 57.66 28.46 57.75 28.34C59.07 26.33 59.97 23.51 60.45 20.33L62.73 21.8C62.94 21.95 63.09 22.04 63.21 22.04C63.33 22.04 63.45 21.95 63.57 21.77C64.02 21.11 64.44 20.45 64.8 19.76V22.37L65.01 22.58L69.54 22.49H69.93V24.5H65.46L60.78 24.41L60.57 24.62V27.71L60.78 27.92L65.46 27.83H77.61L82.29 27.92L82.5 27.71V24.62L82.29 24.41L77.61 24.5H73.98V22.49H75.09L79.62 22.58L79.83 22.37V19.37L79.62 19.16L75.09 19.25H73.98V17.36H76.77L81.3 17.45L81.51 17.24V14.21L81.3 14L76.77 14.09H73.98V12.41L73.8 12.17H70.14L69.93 12.38V14.09ZM69.93 17.36V19.25H69.54L65.1 19.16C65.4 18.56 65.67 17.96 65.91 17.36H69.93ZM72.54 5.84C72.3 6.65 72.06 7.46 71.79 8.27H67.56C67.38 7.46 67.14 6.65 66.87 5.84H72.54ZM104.04 13.22H108.75L113.73 13.31L113.94 13.1V10.22L113.73 10.01L108.75 10.1H108.27C108.54 9.44 108.84 8.78 109.05 8.09H110.79L115.62 8.18L115.83 7.97V5.03L115.62 4.82L111.9 4.88C112.41 4.04 112.89 3.17 113.22 2.51L113.13 2.21L109.44 1.01L109.14 1.13C108.84 2.24 108.3 3.62 107.64 4.91H106.74V0.499999L106.5 0.289998H102.87L102.66 0.529999V4.91H101.19V0.499999L100.95 0.289998H97.44L97.23 0.529999V4.91H96.27C95.76 3.65 95.07 2.24 94.5 1.25L94.26 1.16L91.11 2.21L90.96 2.45C91.32 3.08 91.74 3.98 92.1 4.88L88.35 4.82L88.14 5.03V7.97L88.35 8.18L93.18 8.09H95.49C95.7 8.75 95.91 9.41 96.06 10.1H95.34L90.36 10.01L90.15 10.22V13.1L90.36 13.31L95.34 13.22H99.87V14.39H97.05L92.07 14.3L91.86 14.51V17.3L92.07 17.51L97.05 17.42H99.87V18.62H93.36L88.53 18.53L88.32 18.74V21.62L88.53 21.83L93.36 21.74H97.68C94.95 23.24 91.5 24.53 87.33 25.58L89.61 28.52C89.73 28.67 89.82 28.79 90.06 28.79C90.15 28.79 90.27 28.76 90.45 28.7C94.08 27.53 97.29 26 99.93 24.26L99.72 29H104.19L103.98 24.08C106.62 25.91 109.65 27.23 113.67 28.37C113.82 28.43 113.97 28.43 114.06 28.43C114.24 28.43 114.33 28.37 114.42 28.22L116.7 25.01C112.56 24.2 109.14 23.18 106.17 21.74H110.64L115.62 21.83L115.83 21.62V18.74L115.62 18.53L110.64 18.62H104.04V17.42H107.07L112.05 17.51L112.26 17.3V14.51L112.05 14.3L107.07 14.39H104.04V13.22ZM104.58 8.09C104.43 8.78 104.28 9.44 104.1 10.1H100.26C100.05 9.41 99.84 8.75 99.57 8.09H104.58ZM136.2 29H140.73L140.4 20.87C141.9 23.09 144.15 25.49 146.22 27.05C146.37 27.17 146.52 27.23 146.67 27.23C146.88 27.23 147.06 27.08 147.21 26.87L149.52 23.78C146.94 22.28 144.36 20.27 142.32 18.08H144.54L148.83 18.17L149.01 18.02V14.69L148.83 14.54L144.54 14.63H140.52V12.05H143.31L146.37 12.14L146.61 11.87L146.52 8.81V4.88L146.61 2.03L146.4 1.82L143.52 1.91H133.65L130.77 1.82L130.56 2.03L130.65 4.88V8.72L130.5 11.9L130.71 12.14L133.83 12.05H136.38V14.63H132.63L128.49 14.54L128.31 14.72V17.99L128.52 18.17L132.63 18.08H134.85C132.78 20.45 130.38 22.58 127.71 24.26V7.94C128.34 5.99 128.91 3.83 129.51 1.34L129.36 1.07L125.61 0.259999L125.34 0.409999C124.5 5.69 122.97 10.37 120.69 14.42L121.8 18.56C121.86 18.77 121.98 18.89 122.13 18.89C122.25 18.89 122.4 18.8 122.52 18.59C122.97 17.84 123.27 17.3 123.66 16.4V19.73L123.51 29H127.71V24.83L129.66 27.02C129.87 27.26 130.05 27.38 130.26 27.38C130.41 27.38 130.56 27.32 130.74 27.2C132.75 25.76 134.94 23.72 136.5 21.59L136.2 29ZM134.76 8.66V5.24H142.29V8.66H134.76ZM159.45 26.87L161.13 28.67C161.31 28.85 161.46 28.97 161.61 28.97C161.73 28.97 161.88 28.88 162.06 28.7C162.99 27.74 163.74 26.69 164.37 25.58C166.35 27.26 169.05 28.31 173.52 28.34C175.11 28.34 178.23 28.37 180.72 28.34C181.05 28.34 181.14 28.31 181.26 28.04L182.73 24.38C178.95 24.62 176.1 24.71 173.67 24.68C169.56 24.65 167.49 23.75 165.84 22.31C166.77 19.52 167.16 16.46 167.4 13.1C167.46 12.47 167.46 12.23 167.22 11.99L166.02 10.85L164.61 10.91C165.48 9.2 166.35 7.25 167.28 4.85C167.34 4.67 167.4 4.49 167.4 4.37C167.4 4.13 167.31 3.95 167.1 3.74L165.75 2.33L163.83 2.42H162.69L160.8 2.33L160.62 2.51C160.68 2.12 160.77 1.73 160.83 1.31L160.68 1.04L157.38 0.229999L157.11 0.379999C156.36 5.66 155.01 10.55 153.24 14.12L154.29 17.99C154.35 18.2 154.44 18.32 154.59 18.32C154.71 18.32 154.86 18.23 154.98 18.02C155.34 17.42 155.52 17.12 155.7 16.73V19.73L155.55 29H159.45V26.87ZM159.45 13.97L162.3 15.11C162.57 14.66 162.81 14.24 163.08 13.79H163.92C163.8 15.8 163.65 17.42 163.38 18.86C162.99 17.87 162.75 16.76 162.48 15.56L162.18 15.44L159.84 16.61L159.69 16.94C160.14 19.04 160.77 21.02 161.91 22.85C161.25 24.02 160.38 25.07 159.45 26.03V13.97ZM159.45 7.58C159.87 5.96 160.26 4.31 160.59 2.66V5.63L160.8 5.84L162.69 5.75H163.08C162.15 8.03 160.92 10.58 159.45 12.89V7.58ZM171.87 9.41V10.82L168.33 10.73L168.15 10.91V13.49L168.33 13.67L171.87 13.61V14.72L168 14.63L167.79 14.84V17.57L168 17.78L171.84 17.69L171.81 18.8H171.24L167.19 18.74L167.01 18.92V21.71L167.19 21.92L171.24 21.83H171.75L171.69 24.08H175.62L175.59 21.83H177.6L181.8 21.92L181.98 21.71V18.92L181.8 18.74L177.6 18.8H175.53L175.5 17.69H176.55L180.51 17.78L180.78 17.57V14.84L180.6 14.63L176.55 14.72H175.47V13.61H176.28L180.42 13.67L180.6 13.49L180.51 10.28V9.62L182.34 9.68L182.55 9.47V6.59L182.34 6.38L180.51 6.44V5.45L180.57 2.69L180.39 2.48L176.25 2.57H175.47V0.439998L175.29 0.259999H172.05L171.87 0.439998V2.57L168.51 2.48L168.3 2.69V5.21L168.51 5.39L171.87 5.33V6.62H171.06L167.01 6.56L166.83 6.74V9.26L167.01 9.47L170.88 9.41H171.87ZM175.47 9.41H176.88V10.82H175.47V9.41ZM175.47 6.62V5.33H176.88V6.62H175.47ZM203.04 13.22H207.75L212.73 13.31L212.94 13.1V10.22L212.73 10.01L207.75 10.1H207.27C207.54 9.44 207.84 8.78 208.05 8.09H209.79L214.62 8.18L214.83 7.97V5.03L214.62 4.82L210.9 4.88C211.41 4.04 211.89 3.17 212.22 2.51L212.13 2.21L208.44 1.01L208.14 1.13C207.84 2.24 207.3 3.62 206.64 4.91H205.74V0.499999L205.5 0.289998H201.87L201.66 0.529999V4.91H200.19V0.499999L199.95 0.289998H196.44L196.23 0.529999V4.91H195.27C194.76 3.65 194.07 2.24 193.5 1.25L193.26 1.16L190.11 2.21L189.96 2.45C190.32 3.08 190.74 3.98 191.1 4.88L187.35 4.82L187.14 5.03V7.97L187.35 8.18L192.18 8.09H194.49C194.7 8.75 194.91 9.41 195.06 10.1H194.34L189.36 10.01L189.15 10.22V13.1L189.36 13.31L194.34 13.22H198.87V14.39H196.05L191.07 14.3L190.86 14.51V17.3L191.07 17.51L196.05 17.42H198.87V18.62H192.36L187.53 18.53L187.32 18.74V21.62L187.53 21.83L192.36 21.74H196.68C193.95 23.24 190.5 24.53 186.33 25.58L188.61 28.52C188.73 28.67 188.82 28.79 189.06 28.79C189.15 28.79 189.27 28.76 189.45 28.7C193.08 27.53 196.29 26 198.93 24.26L198.72 29H203.19L202.98 24.08C205.62 25.91 208.65 27.23 212.67 28.37C212.82 28.43 212.97 28.43 213.06 28.43C213.24 28.43 213.33 28.37 213.42 28.22L215.7 25.01C211.56 24.2 208.14 23.18 205.17 21.74H209.64L214.62 21.83L214.83 21.62V18.74L214.62 18.53L209.64 18.62H203.04V17.42H206.07L211.05 17.51L211.26 17.3V14.51L211.05 14.3L206.07 14.39H203.04V13.22ZM203.58 8.09C203.43 8.78 203.28 9.44 203.1 10.1H199.26C199.05 9.41 198.84 8.75 198.57 8.09H203.58ZM231.63 10.16L229.29 10.31H228.3L229.32 9.29L229.29 8.99C228.96 8.72 228.63 8.42 228.3 8.15C229.83 6.77 231.09 5.42 232.14 4.16C232.41 3.83 232.53 3.59 232.53 3.38C232.53 3.2 232.44 3.02 232.23 2.84L230.73 1.34L228.39 1.49H224.85L220.74 1.4L220.5 1.61V4.4L220.71 4.58L224.85 4.49H227.46C227.04 5.06 226.47 5.6 225.75 6.23C225.15 5.81 224.55 5.42 223.92 5.06L223.56 5.09L221.67 6.86L221.7 7.13C223.26 8.12 224.55 9.17 225.81 10.31H224.1L220.05 10.22L219.81 10.43V13.34L220.02 13.52L223.62 13.43C222.54 16.07 221.1 18.38 219.3 20.33L220.95 23.3C221.01 23.42 221.1 23.45 221.19 23.45C221.31 23.45 221.46 23.39 221.58 23.21C222.6 22.01 223.41 20.75 224.13 19.4V24.35C224.13 25.07 223.95 25.25 223.32 25.31C222.81 25.37 222.51 25.37 221.1 25.37L222.51 28.67C222.63 28.97 222.69 29.03 223.29 29.03C227.61 29.03 228.18 28.13 228.18 25.91L228.03 20.66V16.31L230.43 17.36C230.55 17.42 230.67 17.45 230.79 17.45C230.94 17.45 231.06 17.36 231.15 17.21C231.66 16.31 232.02 15.59 232.38 14.9L233.43 16.49C233.55 16.67 233.67 16.73 233.85 16.73C233.94 16.73 234.06 16.7 234.21 16.67C235.2 16.37 236.1 16.04 236.97 15.68C236.97 16.4 236.94 17.09 236.88 17.78H235.95L231.99 17.69L231.81 17.9V21.08L232.02 21.23L235.95 21.14H236.28C236.1 21.65 235.89 22.1 235.65 22.52C234.57 24.35 232.65 25.34 229.5 25.97L231.66 28.88C231.75 29 231.9 29.06 232.05 29.06C232.17 29.06 232.29 29.03 232.41 29C235.8 28.22 238.02 26.6 239.37 24.02C239.82 23.15 240.15 22.19 240.42 21.14H243C242.97 22.64 242.82 23.84 242.64 24.59C242.52 25.07 242.07 25.22 241.59 25.25C240.78 25.28 240.06 25.31 239.22 25.25L240.39 28.55C240.51 28.85 240.63 28.94 240.99 28.94H241.98C244.17 28.94 245.07 28.55 245.82 27.8C246.78 26.84 247.02 24.71 247.2 17.9L247.02 17.72L243.72 17.78H240.93C240.99 17.06 241.02 16.34 241.02 15.56L240.81 15.35L237.93 15.26C238.74 14.87 239.49 14.39 240.24 13.91C241.92 14.93 243.9 15.8 246.18 16.4C246.42 16.46 246.57 16.49 246.66 16.49C246.81 16.49 246.87 16.43 246.93 16.28L248.67 12.65C246.45 12.29 244.62 11.81 243.12 11.15C244.17 9.74 244.95 8.15 245.4 6.44L247.71 6.5L247.92 6.29V3.32L247.71 3.11L243.78 3.2H238.71C238.98 2.63 239.22 2.03 239.46 1.43L239.37 1.13L236.31 0.2L236.01 0.259999C234.84 3.41 233.04 6.05 230.91 8L233.4 9.92C233.58 10.07 233.7 10.13 233.82 10.13C233.91 10.13 234.03 10.07 234.15 9.95C234.51 9.59 234.87 9.23 235.2 8.81C235.71 9.74 236.37 10.55 237.06 11.33C235.89 12.02 234.6 12.5 233.31 12.89C233.4 12.68 233.46 12.5 233.46 12.35C233.46 12.14 233.37 11.96 233.13 11.72L231.63 10.16ZM241.29 6.41C240.93 7.34 240.42 8.21 239.82 8.99C239.07 8.24 238.47 7.37 238.02 6.41H241.29ZM228.03 13.43H229.38C229.05 14.21 228.72 14.87 228.03 15.95V13.43ZM253.86 17.36L256.5 20.3L256.8 20.27C258.66 18.29 260.7 16.37 262.02 15.41C263.07 14.66 264.24 14.36 265.44 14.36C266.34 14.36 266.79 14.75 266.94 15.5C266.28 15.8 265.68 16.1 265.14 16.4C262.35 17.99 259.92 20 259.92 22.88C259.92 25.46 261.51 28.01 267.57 28.01C271.08 28.01 273.6 27.86 276.45 27.62L276.63 27.38L276.36 23.39L276.06 23.21C273.42 23.6 270.42 23.87 268.23 23.84C265.56 23.81 264.36 23.54 264.36 22.52C264.36 21.5 265.38 20.66 267.21 19.79C267.21 20.48 267.21 21.38 267.21 22.25L267.45 22.43L271.41 22.28L271.62 22.1C271.59 20.66 271.56 19.19 271.5 18.02C273.72 17.21 276.3 16.43 279.33 15.65L279.48 15.38L277.62 11.69L277.32 11.57C274.98 12.35 272.85 13.1 270.96 13.82C270.51 12.11 269.16 10.94 267.3 10.94C266.1 10.94 265.38 11.06 264.48 11.33C265.08 10.61 265.74 9.68 266.22 8.96C268.71 8.66 271.17 8.27 273.36 7.82L273.54 7.55L273.24 4.01L272.97 3.86C271.47 4.22 269.97 4.49 268.47 4.73C268.8 3.86 269.16 2.96 269.52 1.91L269.34 1.7L265.23 1.1L264.99 1.25C264.57 2.72 264.12 4.04 263.58 5.27C261.36 5.42 259.14 5.48 256.89 5.48L256.68 5.66L256.8 9.35L256.98 9.53C258.39 9.53 259.89 9.5 261.33 9.38C259.59 11.99 257.22 14.3 253.86 17.03V17.36ZM1.65 71.69L5.61 72.68L5.94 72.59C7.59 66.77 9.09 62.12 11.1 56.42C11.85 56.36 12.54 56.3 13.08 56.3C14.4 56.3 14.61 56.66 14.61 58.46C14.61 61.07 14.01 64.76 13.53 66.29C13.08 67.7 12.66 67.88 11.7 67.88C10.98 67.88 9.66 67.58 8.7 67.22L9.06 71.48C9.09 71.9 9.18 71.96 9.39 72.02C10.71 72.38 11.97 72.56 13.08 72.56C14.67 72.56 16.65 71.84 17.73 68.45C18.54 66.11 19.08 62.15 19.11 58.19C19.14 53.81 16.8 52.28 14.31 52.28C13.74 52.28 13.17 52.31 12.57 52.34C13.08 50.87 13.65 49.28 14.28 47.57L14.19 47.24L10.14 46.25L9.84 46.4C9.06 48.71 8.37 50.84 7.65 52.91C5.58 53.21 3.36 53.48 0.99 53.66L0.81 53.87L1.47 57.5L1.71 57.68C3.21 57.5 4.83 57.29 6.21 57.08C4.68 61.67 3.18 66.23 1.56 71.45L1.65 71.69ZM19.38 53.72C21.66 56.27 23.37 59.81 24.54 63.26L24.81 63.32L28.56 61.16L28.68 60.86C27.39 57.47 25.47 54.2 22.92 51.41H22.62L19.44 53.42L19.38 53.72ZM43.68 46.85C39.84 54.41 36.06 61.94 32.37 70.22L32.46 70.55L36.48 72.02L36.78 71.9C38.07 68.66 39.24 66.05 40.44 63.92C41.43 62.15 42.6 60.83 44.1 60.83C45.09 60.83 45.42 61.22 45.42 62.78C45.42 64.37 45.27 66.32 45.27 67.64C45.27 70.61 47.01 72.2 50.43 72.2C53.88 72.2 57.06 70.01 59.55 65.33C59.82 64.79 59.79 64.64 59.49 64.22L56.82 60.65C54.63 65.33 52.5 67.43 50.64 67.43C49.89 67.43 49.77 66.86 49.8 65.99C49.83 65.12 49.89 63.35 49.86 61.49C49.83 59.06 48.24 57.23 45.3 57.23C44.46 57.23 43.83 57.41 42.96 57.89C44.55 54.95 46.14 52.28 48.06 48.77L47.97 48.44L43.98 46.76L43.68 46.85ZM65.52 71.93L69.6 72.83L69.87 72.71C71.4 66.56 72.87 61.07 74.46 55.52C76.14 55.25 77.85 54.95 79.47 54.65L79.68 54.41L79.41 50.66L79.17 50.54C78.06 50.78 76.86 51.02 75.66 51.23C75.99 50.03 76.38 48.68 76.77 47.45L76.56 47.18L72.45 46.55L72.18 46.7C71.7 48.47 71.22 50.24 70.77 51.92C68.94 52.16 66.99 52.37 64.77 52.55L64.56 52.79L64.86 56.42L65.1 56.63C66.6 56.54 68.1 56.39 69.63 56.21C68.28 61.13 66.93 65.99 65.4 71.69L65.52 71.93ZM75.42 69.29C77.16 71.39 78.84 72.62 84.09 72.62C86.55 72.62 87.9 72.53 89.76 72.29L89.94 72.05V67.85L89.7 67.73C88.05 68.06 86.07 68.21 84.24 68.21C80.82 68.21 79.41 67.79 77.91 66.17L77.61 66.2L75.42 68.96V69.29ZM78.45 60.08C79.8 59.99 81.06 59.93 82.29 59.93C84.42 59.93 86.4 60.05 88.44 60.23L88.71 60.05L89.01 56.33L88.8 56.09C87.09 55.85 85.14 55.73 83.1 55.73C81.69 55.73 80.22 55.79 78.72 55.91L78.51 56.18L78.24 59.87L78.45 60.08ZM106.68 46.85C102.84 54.41 99.06 61.94 95.37 70.22L95.46 70.55L99.48 72.02L99.78 71.9C101.07 68.66 102.24 66.05 103.44 63.92C104.43 62.15 105.6 60.83 107.1 60.83C108.09 60.83 108.42 61.22 108.42 62.78C108.42 64.37 108.27 66.32 108.27 67.64C108.27 70.61 110.01 72.2 113.43 72.2C116.88 72.2 120.06 70.01 122.55 65.33C122.82 64.79 122.79 64.64 122.49 64.22L119.82 60.65C117.63 65.33 115.5 67.43 113.64 67.43C112.89 67.43 112.77 66.86 112.8 65.99C112.83 65.12 112.89 63.35 112.86 61.49C112.83 59.06 111.24 57.23 108.3 57.23C107.46 57.23 106.83 57.41 105.96 57.89C107.55 54.95 109.14 52.28 111.06 48.77L110.97 48.44L106.98 46.76L106.68 46.85ZM139.11 51.29V55.01L139.32 55.28C140.28 55.34 141.21 55.34 142.17 55.34C145.44 55.34 148.59 55.07 150.84 54.59L151.02 54.35L150.84 50.57L150.63 50.39C147.63 50.9 145.02 51.11 142.17 51.11C141.24 51.11 140.28 51.08 139.29 51.05L139.11 51.29ZM152.52 69.95L152.25 65.93L151.98 65.75C149.91 66.17 147.36 66.38 146.37 66.38C142.35 66.41 141.18 65.51 140.61 62.69L140.34 62.6L137.13 64.07L136.98 64.34C137.7 67.67 139.29 70.7 145.32 70.7C148.17 70.7 150.33 70.52 152.37 70.22L152.52 69.95ZM130.44 48.2C130.41 49.97 130.11 51.56 129.66 53.54C128.97 56.3 128.34 59.96 128.34 62.66C128.34 66.98 129.18 69.41 129.84 70.52C130.53 71.72 131.25 72.38 132.45 72.35C133.83 72.32 134.49 71.48 134.52 70.13C134.58 68.24 135.03 66.35 135.93 63.8L135.06 63.35C134.64 63.95 134.01 64.76 133.53 65.3C133.08 65.75 132.78 65.72 132.69 65.33C132.54 64.67 132.51 63.89 132.51 62.3C132.51 60.32 132.93 57.83 133.62 55.34C134.52 52.28 134.91 50.57 135 48.83L134.82 48.59L130.68 48.02L130.44 48.2ZM160.71 64.94L157.8 67.34V67.61C159.72 68.93 161.97 71.18 163.89 73.85H164.16L167.25 71.06V70.82C165.33 68.3 163.38 66.53 161.01 64.91L160.71 64.94ZM187.41 61.58H204.18L209.16 61.67L209.37 61.46V57.26L209.16 57.05L204.18 57.14H187.41L182.43 57.05L182.22 57.26V61.46L182.43 61.67L187.41 61.58ZM229.92 58.31H235.98L241.11 58.4L241.32 58.19V54.92L241.11 54.71L235.98 54.8H229.92V52.1H233.49L238.47 52.19L238.68 51.98V48.71L238.47 48.5L233.49 48.59H229.92V45.53L229.74 45.35H225.75L225.6 45.53V54.8H221.85V48.14L221.67 47.96H217.8L217.65 48.14V54.77L213.48 54.71L213.21 54.86V58.19L213.42 58.4L218.55 58.31H225.6V63.17C225.6 63.89 225.42 64.07 224.79 64.13C224.28 64.19 223.35 64.19 221.94 64.19L223.47 67.67C223.65 68.06 223.77 68.15 224.28 68.15C228.12 68.15 230.04 67.25 230.04 63.86L229.92 59.39V58.31ZM215.79 73.64C216 73.97 216.12 74.03 216.51 74C224.91 73.67 231.87 72.26 237.06 66.71L237.03 66.41L233.88 64.1L233.55 64.13C229.2 69.08 222.48 69.98 213.66 70.13L215.79 73.64ZM220.08 58.85L219.81 58.88C218.13 61.13 216.48 62.69 213.48 64.4L216.06 67.04C216.21 67.19 216.36 67.28 216.51 67.28C216.66 67.28 216.81 67.19 217.02 67.07C219.54 65.51 221.82 63.35 223.38 61.07L223.35 60.74L220.08 58.85ZM241.32 63.92L241.35 63.59C238.98 61.55 236.64 59.96 234.33 58.79L234 58.82L231.42 61.07V61.31C234.12 62.9 235.98 64.4 238.26 66.68L238.62 66.71L241.32 63.92ZM273.45 69.14C268.29 69.53 262.11 69.8 258.39 69.65C255.42 69.53 253.17 69.08 252.18 67.28V61.79L252.27 57.29L252.06 57.08L248.19 57.17H247.56L244.86 57.08L244.68 57.26V60.68L244.89 60.86L247.56 60.77H248.16V67.22C246.84 67.94 245.7 68.63 244.23 69.56L244.14 69.83L246.27 73.34L246.54 73.46C247.77 72.32 249 71.24 250.14 70.28C251.91 72.53 254.37 73.1 256.95 73.28C258.84 73.43 261.27 73.49 263.91 73.49C266.22 73.49 268.74 73.43 271.23 73.34C271.56 73.34 271.65 73.34 271.77 73.04L273.45 69.14ZM259.65 49.67C260.19 48.71 260.67 47.75 261.09 46.73L261 46.43L257.61 45.29L257.31 45.41C256.05 48.77 253.8 52.04 250.95 54.68L253.2 56.99C253.38 57.17 253.53 57.29 253.68 57.29C253.83 57.29 253.98 57.2 254.16 57.02C254.37 56.81 254.61 56.57 254.82 56.33V60.86L254.67 68.93H258.87V67.67H268.62L272.31 67.76L272.52 67.55V64.49L272.31 64.34L268.62 64.43H266.37V62.48H267.66L271.41 62.57L271.62 62.42V59.54L271.41 59.36L267.66 59.45H266.37V57.62H267.6L271.35 57.71L271.56 57.56V54.62L271.35 54.47L267.6 54.56H266.37V52.79H268.44L272.16 52.85L272.37 52.7V49.73L272.16 49.58L268.44 49.67H266.76C267.33 48.8 267.9 47.78 268.35 46.91L268.2 46.61L264.69 45.56L264.42 45.71C263.94 46.97 263.28 48.41 262.62 49.67H259.65ZM258.87 52.79H262.41V54.56H258.87V52.79ZM258.87 57.62H262.41V59.45H258.87V57.62ZM258.87 62.48H262.41V64.43H258.87V62.48ZM252.48 50.33L252.51 50C251.04 48.38 249.72 47.3 248.13 46.22L247.77 46.16L245.13 48.29L245.1 48.53C246.99 49.94 248.07 51.08 249.33 52.7H249.72L252.48 50.33ZM289.68 67.88L292.38 65.06V64.76C291.96 64.34 291.57 63.92 291.21 63.56C292.65 61.16 293.73 58.94 294.69 56.18C296.97 56.87 298.44 59.09 298.44 62.03C298.44 65.39 295.68 67.7 290.1 68.78L293.4 71.78C293.64 71.99 293.79 72.05 294.21 71.99C299.7 70.31 302.91 67.28 302.91 61.94C302.91 56.99 299.58 53.6 295.83 52.64C296.1 51.62 296.49 49.91 296.7 48.65L296.52 48.38L292.53 47.6L292.26 47.81C292.02 49.46 291.66 50.96 291.33 52.16C289.5 52.25 286.8 52.85 284.76 53.99C284.19 52.76 283.65 51.35 283.02 49.85L282.75 49.76L279.42 51.26L279.33 51.53C280.05 53.27 280.71 54.89 281.4 56.42C278.88 58.88 277.77 61.43 277.77 64.7C277.77 68.33 280.14 70.07 282.39 70.07C284.52 70.07 286.38 69.29 288.54 67.04C288.81 67.31 289.08 67.64 289.38 67.91L289.68 67.88ZM283.23 59.93C284.01 61.28 284.85 62.6 285.81 63.83C284.52 65.36 283.65 65.78 282.81 65.78C282.24 65.78 281.76 65.36 281.76 64.1C281.76 63.29 282.09 61.55 283.23 59.93ZM288.39 60.29C287.73 59.36 286.95 58.19 286.41 57.2C287.58 56.57 289.02 56.09 290.25 55.94C289.83 57.26 289.08 59.09 288.39 60.29ZM314.04 53.45C316.8 52.67 319.44 52.04 321.72 51.56C317.73 55.52 313.95 59.66 309.81 64.4L309.84 64.73L313.05 67.31L313.35 67.28C316.53 63.17 319.62 60.35 323.91 60.35C326.4 60.35 327.99 62.03 327.99 64.13C327.99 66.23 327.45 67.64 325.68 68.48C324.87 66.38 323.16 64.04 319.59 64.04C317.16 64.04 315 66.26 315 68.21C315 71.63 318 73.1 321.54 73.1C328.47 73.1 332.58 70.01 332.58 64.55C332.58 59.9 329.55 56.81 325.02 56.81C323.76 56.81 322.71 56.87 321.27 57.59C323.76 55.13 325.44 53.6 327.87 51.2C328.32 50.75 328.41 50.18 328.41 49.64C328.41 48.2 327.15 47.03 325.65 47.03C322.38 47.45 317.76 48.17 313.2 49.19L313.02 49.46L313.8 53.3L314.04 53.45ZM321.93 69.44C321.69 69.5 321.39 69.53 320.97 69.53C319.44 69.53 318.75 68.96 318.75 68.33C318.75 67.79 319.29 67.55 319.89 67.55C320.61 67.55 321.63 68.15 321.93 69.44Z" fill="#3D4851"/>
</svg>
